# xmcd
#
# Track frame offsets: 
#        150
#        16030
#        32557
#        63616
#
# Disc length: 932 seconds
#
# Revision: 0
# Processed by: cddbd v1.5PL3 Copyright (c) Steve Scherf et al.
# Submitted via: ExactAudioCopy v0.95a3
#
DISCID=2703a204
DTITLE=keane - This Is The Last Time
DYEAR=2003
DGENRE=Rock
TTITLE0=This Is The Last Time
TTITLE1=Can't Stop Now
TTITLE2=Allemande
TTITLE3=data
EXTD=
EXTT0=
EXTT1=
EXTT2=
EXTT3=
PLAYORDER=
